<svg version="1.2" baseProfile="tiny" id="Capa_1" xmlns="http://www.w3.org/2000/svg" xmlns:xlink="http://www.w3.org/1999/xlink" x="0px" y="0px" width="400" height="400" viewBox="0 0 400 400" xml:space="preserve">
<g>
	<path fill-rule="evenodd" d="M204.886,92.449c16.073,0,29.086-12.955,29.086-29.08c0-16.134-13.013-29.067-29.089-29.067
		c-16.071,0-29.074,12.933-29.074,29.067C175.809,79.494,188.815,92.449,204.886,92.449z"></path>
	<path fill-rule="evenodd" d="M392.063,191.447c-3.094-11.646-5.847-23.384-9.127-34.975c-3.325-11.749-4.467-24.377-14.158-33.672
		c-1.725-1.655-1.734-6.168-1.079-9.029c1.667-7.292,4.16-14.392,6.88-23.424c-4.831,3.29-8.294,5.65-13.015,8.864
		c1.5-6.125,2.697-11.01,3.895-15.893c-0.681-0.503-1.359-1.007-2.039-1.512c-5.069,5.462-9.941,11.126-15.302,16.288
		c-2.193,2.112-5.402,4.358-8.203,4.428c-8.633,0.218-17.293-0.585-27.509-1.064c1.99,2.859,2.694,3.873,2.667,3.834
		c-3.942,1.218-7.896,2.439-11.854,3.662c-5.255,6.695-10.942,13.933-16.842,21.43c-0.011-0.268-0.024-0.537-0.072-0.808
		c-1.369-7.773-8.775-12.952-16.541-11.588l-28.596,5.044l-34.929-20.357c-11.498-7.494-34.081-4.046-37.995,14.573l-11.648,48.782
		c-1.024,5.574-2.598,12.191-0.598,19.71V188h-8.152c-17.103-5-40.761-7.829-56.869,1.508c-0.186-0.282-0.374-0.457-0.558-0.753
		c-7.429-11.914-18.018-20.973-33.362-18.789c-14.2,2.022-23.307,11.114-28.153,25c3.708-0.822,6.912-1.521,12.159-2.683
		c-9.826,15.747-12.545,34.911-36.162,35.612c3.804,1.98,5.879,3.15,8.028,4.164c22.171,10.426,39.194,3.881,48.895-18.628
		c1.41-3.271,3.052-6.683,5.43-9.247c3.65-3.937,7.861-5.788,12.485-3.856c-19.786,28.008-0.464,46.109-1.358,97.834l-4.74,46.609
		c-1.062,10.439,6.541,19.764,16.98,20.824c0.654,0.066,1.302,0.1,1.945,0.1c9.628,0,17.884-7.293,18.879-17.08l6.89-67.756
		l4.921,33.588c0.288,1.961,0.88,3.865,1.757,5.645l17.252,35.002c3.309,6.711,10.048,10.604,17.057,10.604
		c2.82,0,5.686-0.631,8.386-1.961c9.413-4.639,13.282-16.031,8.643-25.443l-15.93-32.56L154.931,268h51.928l6.091,41.81
		l-9.99,30.897c-3.241,9.98,2.225,20.759,12.205,23.997c1.949,0.633,3.926,0.965,5.87,0.965c8.011,0,15.461-5.094,18.067-13.125
		l11.362-34.992c0.902-2.779,1.151-5.97,0.728-8.86L245.265,268h9.795l7.597,41.419l-12.199,29.966
		c-3.97,9.713,0.686,20.866,10.399,24.837c2.354,0.961,4.787,1.447,7.182,1.447c7.488,0,14.586-4.441,17.595-11.803l14.307-34.992
		c1.376-3.367,1.757-7.057,1.097-10.633l-9.594-52l27.211-52.366c4.286,0.95,8.569,1.427,12.855,1.427
		c10,0,18.927-2.976,26.784-8.927c0.468-0.354,0.909-0.724,1.357-1.091c2.9,3.249,5.387,6.91,7.412,11.199
		c1.621,3.439,6.66,7.029,10.426,7.367C389.646,214.945,395.663,205.006,392.063,191.447z M328.517,167.184
		c-0.007-0.004-0.014-0.008-0.021-0.012c-0.804-0.518-1.603-1.047-2.396-1.588c0.231-0.058,0.453-0.125,0.693-0.173
		C327.382,166.001,327.953,166.593,328.517,167.184z M213.114,139.739l22.706,13.233l38.042-6.887
		C262.5,160.487,250.924,175,240.49,188h-16.271c-0.055,0-0.119-0.026-0.173-0.134l-20.05-9.882
		C206.947,165.615,210.574,150.459,213.114,139.739z M331.509,196.734c-2.856,0-5.474-0.241-7.856-0.714l11.557-21.534
		c3.366,3.67,6.646,6.978,10.482,9.397c2.719,1.712,5.259,3.495,7.62,5.406c-0.126,0.1-0.246,0.204-0.375,0.302
		C346.746,194.352,339.604,196.734,331.509,196.734z"></path>
</g>
</svg>